<?xml version="1.0" encoding="utf-8"?>
<!-- Generator: Adobe Illustrator 23.0.0, SVG Export Plug-In . SVG Version: 6.00 Build 0)  -->
<svg version="1.1" id="ea61258a-e793-48f7-8624-3c5ca462ffd9"
	 xmlns="http://www.w3.org/2000/svg" xmlns:xlink="http://www.w3.org/1999/xlink" x="0px" y="0px" viewBox="0 0 882.3 779"
	 style="enable-background:new 0 0 882.3 779;" xml:space="preserve">
<style type="text/css">
	.st0{fill:#D1C59D;}
	.st1{fill:#FFFFFF;}
	.st2{fill:#A08B4A;}
	.st3{fill:#FFCC07;}
	.st4{fill:#382122;}
	.st5{fill:#2F2E41;}
	.st6{fill:#FFB8B8;}
	.st7{opacity:0.2;enable-background:new    ;}
	.st8{fill:#434159;}
	.st9{fill:#E4E4E4;}
	.st10{fill:#FFF9E4;}
	.st11{fill:#313043;}
	.st12{fill:#A17279;}
	.st13{fill:#9E636C;}
	.st14{fill:#FFF6CF;}
	.st15{fill:#312F42;}
	.st16{fill:#D3D1D7;}
	.st17{fill:#9C616A;}
	.st18{fill:#F6C61A;}
	.st19{fill:#FFD025;}
</style>
<title>remotely</title>
<path class="st0" d="M342.4,20.1l3.5-5.4c-1-2.8-2.2-5.6-3.6-8.3L340,8.2l1.8-2.7c-1.7-3.3-3-5.4-3-5.4s-7,11-9.3,22.6l4.5,6.9
	l-4.9-4c-0.2,1.4-0.3,2.7-0.3,4.1c0,13.7,4.5,24.9,10,24.9s10-11.1,10-24.9c-0.1-4.4-0.9-8.7-2.3-12.8L342.4,20.1z"/>
<path class="st0" d="M366.9,32l6.2-1.3c1.3-2.7,2.4-5.5,3.4-8.4l-2.9-0.3l3.2-0.7c1.2-3.6,1.7-6,1.7-6s-12.7,2.8-22.5,9.4l-1.7,8
	l-0.7-6.3c-1.1,0.8-2.1,1.7-3.1,2.7c-9.7,9.7-14.4,20.8-10.5,24.7s15-0.8,24.7-10.5c3-3.2,5.5-6.8,7.5-10.7L366.9,32z"/>
<path class="st0" d="M369.2,85.2c-14.5,0.9-30.3-0.1-47,0V46.8c14.8,2.3,30.6,2.1,47,0V85.2z"/>
<path class="st0" d="M472.8,115.2l2.3-3.5c-0.7-1.9-1.4-3.7-2.3-5.4l-1.5,1.2l1.2-1.8c-1.1-2.2-2-3.5-2-3.5
	c-2.8,4.6-4.8,9.5-6.1,14.7l2.9,4.5l-3.2-2.6c-0.1,0.9-0.2,1.8-0.2,2.7c0,9,2.9,16.2,6.5,16.2s6.5-7.3,6.5-16.2
	c-0.1-2.9-0.6-5.7-1.5-8.4L472.8,115.2z"/>
<path class="st0" d="M488.8,122.9l4.1-0.9c0.8-1.8,1.6-3.6,2.2-5.5l-1.9-0.2l2.1-0.4c0.8-2.3,1.1-3.9,1.1-3.9
	c-5.2,1.2-10.2,3.3-14.7,6.1l-1.1,5.2l-0.4-4.1c-0.7,0.5-1.4,1.1-2,1.8c-6.3,6.3-9.4,13.6-6.9,16.1s9.8-0.5,16.1-6.9
	c2-2.1,3.6-4.4,4.9-7L488.8,122.9z"/>
<path class="st0" d="M490.3,157.6c-9.4,0.6-19.7,0-30.7,0v-25.1c10.2,1.4,20.5,1.4,30.7,0V157.6z"/>
<path class="st0" d="M484.5,231.9c-8.3,0.5-17.4,0-27.1,0v-22.1c9,1.3,18.1,1.3,27.1,0V231.9z"/>
<rect x="167.5" y="82.5" class="st0" width="364.5" height="10.2"/>
<rect x="167.5" y="154.8" class="st0" width="364.5" height="10.2"/>
<rect x="167.5" y="227.1" class="st0" width="364.5" height="10.2"/>
<circle class="st0" cx="471" cy="197.5" r="20.4"/>
<circle class="st1" cx="471" cy="197.5" r="16.3"/>
<circle class="st0" cx="471" cy="197.5" r="4.1"/>
<rect x="468.9" y="196.5" class="st0" width="16.3" height="2"/>
<rect x="469.9" y="183.3" class="st0" width="2" height="16.3"/>
<rect x="339.7" y="105.1" class="st0" width="13.5" height="53.3"/>
<rect x="339.7" y="113.5" class="st2" width="13.5" height="6.2"/>
<rect x="339.7" y="140.5" class="st2" width="13.5" height="6.2"/>
<rect x="319" y="105.1" class="st0" width="13.5" height="53.3"/>
<rect x="319" y="113.5" class="st2" width="13.5" height="6.2"/>
<rect x="319" y="140.5" class="st2" width="13.5" height="6.2"/>
<rect x="363.9" y="105.1" transform="matrix(0.8962 -0.4437 0.4437 0.8962 -19.9904 178.1151)" class="st0" width="13.5" height="53.3"/>
<rect x="357.1" y="115.1" transform="matrix(0.8962 -0.4437 0.4437 0.8962 -14.6609 173.7203)" class="st2" width="13.5" height="6.2"/>
<rect x="369.1" y="139.3" transform="matrix(0.8962 -0.4437 0.4437 0.8962 -24.1356 181.5332)" class="st2" width="13.5" height="6.2"/>
<rect x="219.6" y="177.4" class="st0" width="13.5" height="53.3"/>
<rect x="219.6" y="185.8" class="st2" width="13.5" height="6.2"/>
<rect x="219.6" y="212.8" class="st2" width="13.5" height="6.2"/>
<rect x="198.8" y="177.4" class="st0" width="13.5" height="53.3"/>
<rect x="198.8" y="185.8" class="st2" width="13.5" height="6.2"/>
<rect x="198.8" y="212.8" class="st2" width="13.5" height="6.2"/>
<rect x="243.7" y="177.4" transform="matrix(0.8962 -0.4437 0.4437 0.8962 -64.5434 132.3081)" class="st0" width="13.5" height="53.3"/>
<rect x="237" y="187.4" transform="matrix(0.8962 -0.4437 0.4437 0.8962 -59.2139 127.9134)" class="st2" width="13.5" height="6.2"/>
<rect x="248.9" y="211.6" transform="matrix(0.8962 -0.4437 0.4437 0.8962 -68.6885 135.7263)" class="st2" width="13.5" height="6.2"/>
<rect x="345.8" y="177.4" class="st0" width="13.5" height="53.3"/>
<rect x="345.8" y="185.8" class="st2" width="13.5" height="6.2"/>
<rect x="345.8" y="212.8" class="st2" width="13.5" height="6.2"/>
<rect x="325.1" y="177.4" class="st0" width="13.5" height="53.3"/>
<rect x="325.1" y="185.8" class="st2" width="13.5" height="6.2"/>
<rect x="325.1" y="212.8" class="st2" width="13.5" height="6.2"/>
<rect x="370" y="177.4" transform="matrix(0.8962 -0.4437 0.4437 0.8962 -51.4343 188.3319)" class="st0" width="13.5" height="53.3"/>
<rect x="363.3" y="187.4" transform="matrix(0.8962 -0.4437 0.4437 0.8962 -46.1048 183.9371)" class="st2" width="13.5" height="6.2"/>
<rect x="375.2" y="211.6" transform="matrix(0.8962 -0.4437 0.4437 0.8962 -55.5794 191.7501)" class="st2" width="13.5" height="6.2"/>
<rect x="450" y="32.6" class="st0" width="53.6" height="53.6"/>
<rect x="460.7" y="43.4" class="st2" width="32.1" height="32.1"/>
<polygon class="st0" points="470,54.1 476.8,65.9 483.6,77.7 470,77.7 456.4,77.7 463.2,65.9 "/>
<polygon class="st0" points="481.8,56.4 488.7,68.2 495.5,80 481.8,80 468.2,80 475,68.2 "/>
<circle class="st0" cx="486.6" cy="49" r="3.9"/>
<rect x="179.1" y="32.6" class="st0" width="53.6" height="53.6"/>
<rect x="189.8" y="43.4" class="st2" width="32.1" height="32.1"/>
<polygon class="st0" points="199.1,54.1 205.9,65.9 212.8,77.7 199.1,77.7 185.5,77.7 192.3,65.9 "/>
<polygon class="st0" points="211,56.4 217.8,68.2 224.6,80 211,80 197.3,80 204.2,68.2 "/>
<circle class="st0" cx="215.8" cy="49" r="3.9"/>
<path class="st3" d="M71.5,397.8l3.5-5.4c-1-2.8-2.2-5.6-3.6-8.3l-2.2,1.8l1.8-2.7c-1.7-3.3-3-5.4-3-5.4s-7,11-9.3,22.6l4.5,6.9
	l-4.9-4c-0.2,1.4-0.3,2.7-0.3,4.1c0,13.7,4.5,24.9,10,24.9s10-11.1,10-24.9c-0.1-4.4-0.9-8.7-2.3-12.8L71.5,397.8z"/>
<path class="st3" d="M96.1,409.8l6.2-1.3c1.3-2.7,2.4-5.5,3.4-8.4l-2.9-0.3l3.2-0.7c1.2-3.6,1.7-6,1.7-6s-12.7,2.8-22.5,9.4l-1.7,8
	l-0.7-6.3c-1.1,0.8-2.1,1.7-3.1,2.7c-9.7,9.7-14.4,20.8-10.5,24.7s15-0.8,24.7-10.5c3-3.2,5.5-6.8,7.5-10.7L96.1,409.8z"/>
<path class="st4" d="M98.3,463c-14.5,0.9-30.3-0.1-47,0v-38.4c14.8,2.3,30.6,2.1,47,0V463z"/>
<rect x="501" y="475" class="st0" width="195.5" height="253.6"/>
<rect x="92.7" y="488.3" class="st0" width="10.2" height="240.3"/>
<rect y="457.7" class="st0" width="696.5" height="20.4"/>
<rect x="87.6" y="478.1" class="st0" width="20.4" height="20.4"/>
<polygon class="st4" points="614.2,489.8 613,494.4 584.5,494.4 582.8,489.8 510.2,489.8 510.2,536.6 687.3,536.6 687.3,489.8 "/>
<polygon class="st4" points="614.2,548.9 613,553.4 584.5,553.4 582.8,548.9 510.2,548.9 510.2,595.7 687.3,595.7 687.3,548.9 "/>
<polygon class="st4" points="614.2,607.9 613,612.5 584.5,612.5 582.8,607.9 510.2,607.9 510.2,654.8 687.3,654.8 687.3,607.9 "/>
<polygon class="st4" points="614.2,667 613,671.6 584.5,671.6 582.8,667 510.2,667 510.2,713.8 687.3,713.8 687.3,667 "/>
<polygon class="st0" points="377.8,454.7 317.7,454.7 319.7,428.2 375.7,428.2 "/>
<rect x="314.7" y="451.6" class="st0" width="67.2" height="6.1"/>
<path class="st4" d="M462.8,257.6H233.2c-3.4,0-6.1,2.7-6.1,6.1v0v140h241.8v-140C468.9,260.4,466.2,257.6,462.8,257.6L462.8,257.6z
	"/>
<path class="st0" d="M227.1,403.8v22.9c0,3.4,2.7,6.1,6.1,6.1h0h229.6c3.4,0,6.1-2.7,6.1-6.1v0v-22.9H227.1z"/>
<rect x="239.3" y="270.4" class="st1" width="217.9" height="122.2"/>
<circle class="st4" cx="348.3" cy="418" r="6.1"/>
<path class="st4" d="M865,727.1c-22.3,1.4-46.5-0.1-72.3,0V668c22.7,3.5,47,3.2,72.3,0V727.1z"/>
<polygon class="st4" points="831.4,673.3 825.3,673.3 827.4,553.9 829.4,553.9 "/>
<polygon class="st4" points="858.9,674.1 852.8,674.1 854.9,554.8 856.9,554.8 "/>
<polygon class="st4" points="807,674.1 800.9,674.1 802.9,554.8 805,554.8 "/>
<path class="st0" d="M836.5,477.6l9.9-15.2c-2.9-8.1-6.3-16-10.1-23.7l-6.4,5.2l5-7.8c-4.8-9.5-8.6-15.4-8.6-15.4
	s-19.8,31.2-26.4,64.2l12.7,19.6l-14-11.3c-0.5,3.8-0.8,7.7-0.8,11.6c0,39.1,12.8,70.8,28.5,70.8s28.5-31.7,28.5-70.8
	c0-12.1-2.7-24.8-6.5-36.5L836.5,477.6z"/>
<path class="st3" d="M864,479.6l9.9-15.2c-2.9-8.1-6.3-16-10.1-23.7l-6.4,5.2l5-7.8c-4.8-9.5-8.6-15.4-8.6-15.4
	s-19.8,31.2-26.4,64.2l12.7,19.6l-14-11.3c-0.5,3.8-0.8,7.7-0.8,11.6c0,39.1,12.8,70.8,28.5,70.8s28.5-31.7,28.5-70.8
	c0-12.1-2.7-24.8-6.5-36.5L864,479.6z"/>
<path class="st3" d="M812.1,479.6l9.9-15.2c-2.9-8.1-6.3-16-10.1-23.7l-6.4,5.2l5-7.8c-4.8-9.5-8.6-15.4-8.6-15.4
	s-19.8,31.2-26.4,64.2l12.7,19.6l-14-11.3c-0.5,3.8-0.8,7.7-0.8,11.6c0,39.1,12.8,70.8,28.5,70.8s28.5-31.7,28.5-70.8
	c0-12.1-2.7-24.8-6.5-36.5L812.1,479.6z"/>
<rect x="310" y="304.8" class="st4" width="58.8" height="3.4"/>
<rect x="310" y="317.2" class="st3" width="90.7" height="3.4"/>
<rect x="310" y="328.7" class="st3" width="73.9" height="3.4"/>
<rect x="310" y="340.3" class="st4" width="43.2" height="3.4"/>
<rect x="310" y="351.8" class="st4" width="65.2" height="3.4"/>
<rect x="283.2" y="303.6" class="st4" width="7.2" height="7.2"/>
<rect x="283.2" y="315.2" class="st3" width="7.2" height="7.2"/>
<rect x="283.2" y="326.8" class="st3" width="7.2" height="7.2"/>
<rect x="283.2" y="338.4" class="st4" width="7.2" height="7.2"/>
<rect x="283.2" y="350" class="st4" width="7.2" height="7.2"/>
<path class="st3" d="M447.1,298.5h-30.8c-2.1-12.2-2.1-24.6,0-36.8h30.8C443.6,273.7,443.4,286.5,447.1,298.5z"/>
<path class="st5" d="M222.8,372.1l-12.7-3.1c-18,0-32.7-14.6-32.7-32.6c0-2.2,0.2-4.4,0.6-6.5l0,0c0-23.6,19.1-42.7,42.6-42.7h0
	c23.6,0,42.7,19.1,42.7,42.6v0C270.6,354.8,248.1,378.3,222.8,372.1z"/>
<circle class="st6" cx="236.6" cy="345.2" r="31.4"/>
<path class="st6" d="M216.2,361.6c0,0-9.5,32.7-15,35.5s43.6,6.8,43.6,6.8s-1.4-31.4,1.4-34.1S216.2,361.6,216.2,361.6z"/>
<path class="st5" d="M265.3,563.4c0,0,61.4-5.5,69.5,15s-5.5,141.8-5.5,141.8h-25.9v-99.5c0,0-110.5-31.4-110.5-42.3
	S265.3,563.4,265.3,563.4z"/>
<path class="st5" d="M325.3,714.8l13.6,5.5c0,0,16.4-1.4,9.5,10.9c-4,7.2-11,12.2-19.1,13.6c0,0-25.9,9.5-27.3,0s6.8-28.6,6.8-28.6
	L325.3,714.8z"/>
<path class="st5" d="M231.2,563.4c0,0,61.4-5.5,69.5,15s-5.5,141.8-5.5,141.8h-25.9v-99.5c0,0-78.4-18.2-78.4-29.1
	c0-5.1-5.3-31.2,4.1-36.7C205.6,548.8,231.2,563.4,231.2,563.4z"/>
<path class="st5" d="M291.2,714.8l13.6,5.5c0,0,16.4-1.4,9.5,10.9c-4,7.2-11,12.2-19.1,13.6c0,0-25.9,9.5-27.3,0s6.8-28.6,6.8-28.6
	L291.2,714.8z"/>
<path class="st4" d="M202.5,393l41,4.5c13,1.4,23.6,11,26.3,23.8l15.9,75.4c0,0,5.5,75-5.5,79.1s-25.9-16.4-46.4-13.6
	s-47,8.9-47,8.9s-4.2-134.2-4.8-145.2C181,403.7,202.5,393,202.5,393z"/>
<path class="st6" d="M299.6,567.3l16.8,9.9c0,0,30.2-4.3,29.2,6.3s-33.9,8.6-33.9,8.6l-20.3-12.5L299.6,567.3z"/>
<circle class="st5" cx="175.7" cy="299.5" r="20.3"/>
<path class="st5" d="M194.4,288.6c0-11.2-9.1-20.2-20.3-20.2c-1.3,0-2.7,0.1-4,0.4c10.1-4.8,22.2-0.5,27,9.7
	c4.8,10.1,0.5,22.2-9.7,27c-1.5,0.7-3.1,1.2-4.7,1.5C189.9,303.6,194.4,296.4,194.4,288.6z"/>
<path class="st5" d="M211.8,300.1l27.3-5l21,13.2c10.5,6.6,16.3,18.8,14.7,31.1l-21-5.3l-4.7-11.8l-5.6,9.2l-29.3,37.8l-16.5-10.5
	l-14.7-23L211.8,300.1z"/>
<path class="st4" d="M234.3,404.6l13.6-6.8c0,0,28.6,4.1,34.1,23.2s30,151.4,30,151.4l-23.2,10.9l-32.7-80.5L234.3,404.6z"/>
<polygon class="st7" points="245.9,458.2 259.6,511.2 283.8,570.7 282.9,572.8 254.1,512.2 "/>
<polygon class="st4" points="144.1,750.4 139.3,748.7 185.9,610.2 192.6,612.6 "/>
<polygon class="st4" points="322.3,750.4 327.1,748.7 280.5,610.2 273.7,612.6 "/>
<polygon class="st4" points="223.8,779 228.9,779 230.4,617.1 223.3,617.1 "/>
<path class="st3" d="M132.3,528.9l14,56.4c4,16.1,16.5,28.7,32.6,32.7h0c38.9,9.7,79.7,9.5,118.5-0.8l20.9-5.5
	c12.1-3.2,21.2-13.6,22.1-26.1c0.3-4.4-0.5-8.9-2.3-12.9c-0.1-0.2-0.2-0.3-0.2-0.5c-5.5-11.4-16.9-18.8-29.6-19.1l-22.1-0.7
	l-80.4-35.6c0,0-27.7-14.1-50.4-15.6C140.3,500.1,128.7,514.2,132.3,528.9z"/>
<rect x="543.3" y="351.3" class="st0" width="79.4" height="107.9"/>
<rect x="552.4" y="363.8" class="st1" width="61.1" height="83"/>
<rect x="576.5" y="385.5" class="st4" width="29.6" height="3.4"/>
<rect x="559.9" y="383.6" class="st4" width="7.2" height="7.2"/>
<rect x="576.5" y="399.7" class="st4" width="29.6" height="3.4"/>
<rect x="559.9" y="397.9" class="st4" width="7.2" height="7.2"/>
<rect x="576.5" y="414" class="st4" width="29.6" height="3.4"/>
<rect x="559.9" y="412.1" class="st4" width="7.2" height="7.2"/>
<path class="st4" d="M583,354.4L583,354.4c1.7,0,3.1,1.4,3.1,3.1l0,0c0,1.7-1.4,3.1-3.1,3.1l0,0c-1.7,0-3.1-1.4-3.1-3.1l0,0
	C579.9,355.7,581.3,354.4,583,354.4z"/>
<g>
	<path class="st8" d="M-324.7,672.9c3.1,1.3,6.4,0.7,9.6,0.7c18.9,0.1,37.7,0,56.6,0.1c2.1,0,4.5-1,7,2c-263.9,0-527.1,0-790.3,0
		c0-0.7,0-1.3,0-2c13.5,0,27.1,0,40.6,0c13.8-0.1,27.6-0.2,41.3-0.4c2.2,0.1,4.4,0.4,6.6,0.4c24.3,0,48.7,0,73.4,0
		c-1-0.6-1.8-1.3-2.6-1.6c-31.9-11.4-45.3-30.2-45.3-63.7c0-13.8-0.2-27.6-0.3-41.3c0.1-12.4,0.4-24.7,0.4-37.1
		c0-88.6,0-177.3-0.1-265.9c0-3.3,2.1-7.8-3.4-9.5c-0.5-0.2-0.5-2.6-0.5-4c0-7.1-0.3-14.2,0.1-21.3c0.2-4.1-2.1-8.9,3.4-12.1
		c2.4-1.4,0-12.6-2.7-15.4c-1.3-1.4-0.8-3.1-0.8-4.6c-0.1-8.9-0.1-17.8,0-26.8c0-2.2-1.1-5.2,2.9-5.4c0.3,0,0.8-0.9,0.9-1.5
		c0.1-7.5,2.8-16.8-0.6-22c-4.6-7-2-13.2-3.1-19.7c-0.4-2.6-1.3-5.9,3-7.3c1.7-0.6,0.8-3.3,0.8-5.1c0-19.7,0-39.3,0-59
		c0.1-38.7,25.3-64,63.8-64c70.8,0,141.6,0,212.3,0c37.3,0,63,25.7,63,63c0,31.2,0,62.5,0.1,93.7c0,2.6-1.8,6.1,2.9,7.2
		c1.4,0.3,0.7,2.6,0.7,3.9c0,21.7,0,43.4,0,65.1c0,1.9,0.6,4-2.5,4.5c-2.2,0.4-1.1,2.7-1.1,4.2c-0.2,5.9-0.1,11.8-0.2,17.6
		c-4.6-2.6-9.8-4.6-12.4-9.8c0-2.2-0.1-4.5-0.1-6.7c0-59.8,0-119.7,0-179.5c0-24.3-14.3-42.8-36.7-46.9c-10.2-1.9-20.7-0.3-31-0.8
		c-4.2-0.2-5.4,0.7-4.8,5.2c1.7,13.1-7.2,23.9-20.5,24c-42,0.3-84,0.3-126,0C-833.7,31-842.5,20-840.9,6.7c0.2-1.4,0.3-2.8,0.5-4.8
		c-11.5,0.3-23-1.2-34.1,0.8c-22,3.8-36.7,22.2-36.7,44.9c0,187.6,0,375.3,0,562.9c0,29.3,18.5,47.9,47.7,47.9
		c71.4,0,142.8,0,214.2,0c4,0,8.2,0,12.1-0.9c22.3-4.8,35.9-22.6,35.9-46.9c0-87.2,0-174.5,0-261.7c0-28.4,0.1-56.8,0.1-85.2
		c5,2.8,9.2,6.5,12.5,11.1c0,2.4-0.1,4.9-0.1,7.3c0,110.1,0.1,220.2-0.1,330.3c0,25.6-11.7,44.5-34.7,56c-3.1,1.6-6.6,2.7-9.9,4
		c0.9,1.7,2.3,1.2,3.3,1.2c41.2,0,82.3-0.1,123.5,0.2c4.1,0,4.4-2.4,5.5-4.8c-0.1,3.8,2.3,3.9,5.2,3.9c11.9-0.1,23.7-0.3,35.6,0.1
		c4.8,0.1,5.9-1.7,5.6-6c-0.3-4,0-8,0-12.1c2.1,4.2,1,8.6,0.8,12.9c-0.2,4.9,1.5,6,6.1,6c38.6-0.2,77.3-0.1,115.9-0.1
		c1.7,0,3.7,0.6,5.2-0.8C-326,672.9-325.3,672.9-324.7,672.9z M-764.6,7.3c-5,0-10.1,0-15.1,0c-1.6,0-3.5,0.4-3.6,2.4
		c-0.2,2.5,1.8,3,3.6,3c10.1,0.1,20.2,0.1,30.3,0c1.9,0,3.8-0.5,3.6-3c-0.2-2-2-2.4-3.6-2.4C-754.5,7.3-759.5,7.3-764.6,7.3z"/>
	<path class="st4" d="M-451.1,333.4c0.8-0.1,1.9,0.1,2.3-0.4c5.8-6.4,9.4-1.6,13,2.5c9.5,11,14.2,24.5,14.5,38.5
		c0.6,24.9,9.4,47.9,14.5,71.7c0.6,3,1.6,5.9,2.1,8.8c3.2,18.5,11.3,34.5,22.3,49.7c19.2,26.6,37,54.1,55.6,81.2
		c2,2.9,2.2,4.7-0.3,7c-5.6,4.1-11.4,7.8-15.8,13.2c-3,1.3-4.4-0.9-6.1-2.7c-26.1-27.2-52.1-54.5-78.2-81.7
		c-2.2-2.3-3.5-4.8-4.6-7.7c-10.2-27.4-20.5-54.7-31.1-83c-0.4,1.7-0.7,2.4-0.7,3.1c-1.9,27.7-3.8,55.4-5.6,83.1
		c-0.1,1.4,0.3,2.8,0.5,4.2c5.8,32.8,11.6,65.7,17.6,98.5c0.8,4.5,0,6.7-4.7,6.9c-0.8,0-1.6,0.3-2.4,0.5c-6.5,1-13.1,1.9-19.6,2.9
		c-2,0.4-2.3-0.8-2.7-2.4c-7.7-34.3-16-68.4-23.1-102.9c-5.6-27.1-7.5-54.9-11.7-82.3c-5.3-34.7-4.3-69.4-4.2-104.3
		c12.9,1,25.9,0.5,38.8,0.1c-2.7,4.1-4.9,8.3-10.9,9.3c-5.1,0.9-7.5,5.6-7.1,10.7c0.3,5.1,3.3,8.7,8.5,9.8c5.2,1.1,9.2-0.9,11.8-5.4
		c6.5-11.2,16.3-19.3,25.4-28.2c0.7-0.2,1.7,0,1.7-1.2L-451.1,333.4z"/>
	<path class="st9" d="M-480.4,338.2c-12.9,0.4-25.9,0.9-38.8-0.1c-1.6-1-1.1-2.3-0.7-3.7c1.4-5,2.9-10,3.8-15.2
		c1.6-9,4.4-18.4-3.8-26c-4.1-3.7-6.6-8.5-9.7-12.9c2.3-11.3-4.4-18.5-11.6-25.5c-0.3-2.3,1.2-3.7,2.7-5.2
		c10.8-11.2,21.5-22.6,32.5-33.6c3.6-3.6,5.8-7.1,5-12.2c-0.8-5.5,2-8,7.1-9.5c8.9-2.5,18-2.5,27.1-2.4c2.8,0,5.5,0.8,7,3
		c6.9,10.3,17.8,16.8,24.3,27.5c8.5,14.1,13.2,29.5,16.7,45.3c1.2,5.3-3.8,3.8-6.5,4.9c-8.2-0.1-16.2,1.2-24.5,2.5
		c1.4,3.5,2.4,6.6,3.8,9.5c1.3,2.5,0.9,4.5-0.7,6.7C-458,307-469.2,322.6-480.4,338.2z"/>
	<path class="st10" d="M-928.2,567c0.1,13.8,0.3,27.6,0.3,41.3c0.1,33.5,13.5,52.4,45.3,63.7c0.9,0.3,1.6,1,2.6,1.6
		c-24.7,0-49.1,0-73.4,0c-2.2,0-4.4-0.2-6.6-0.4c-0.2-4-4.1-3.5-6.3-4.8c-35.7-20.6-56.8-51.7-65.5-91.6c-0.8-3.4-3.9-8.1-1.5-10
		c2.4-1.9,6.3,2.1,9.5,3.6c10.8,4.7,21.9,7.7,33.7,8.8c21,2.1,40.3-2.4,58.8-12C-930.3,566.9-929.2,567.1-928.2,567z"/>
	<path class="st11" d="M-542.2,154.1c0.5-12.9,3.1-25.6,12.3-36.1c18.8-21.4,52-18.3,66.4,6.4c8.2,13.9,10.6,29.6,11.3,45.4
		c0.3,6-3.1,7-9.3,7.7c-3.6,0.4-7.8-1.7-11.6,0.8c-3.5,2.3-7.7,3.4-11.6,5.1c-2.8,1.2-6.4,4.1-8.2,3.2c-6.9-3.4-12.4,1.3-18.4,2
		c-6.8,0.7-13.6,1.9-20.5,2.2c-2.6,0.1-4.6,0-5.3-3.3C-539.6,176.7-542,165.8-542.2,154.1z M-491,167.2c0.7-7.3-2.5-14.6-8.1-20.8
		c-2.2-2.5-4.8-5.2-8.8-4.1c-8.2,2.3-16.3,4.8-24.5,7c-2.5,0.6-2.7,1.9-2.4,3.9c1.6,15.1,15.6,27.7,31.1,28
		C-492.1,181.3-491,180.3-491,167.2z"/>
	<path class="st12" d="M-541.2,254.8c7.2,7,13.9,14.2,11.6,25.5c-11.1,1.9-22.3,3.5-33.3,6c-5.1,1.2-9,0.5-13-2.4
		c-4.2-3.1-8.5-6.1-12.7-9.1c-3.4-4.6-7.5-8.3-12.5-11.1c-10.5-10-21.1-20-31.6-30c-0.9-0.9-2.2-1.1-3.4-0.5
		c0.5-0.7,0.9-1.4,1.4-2.1c3.9-5.5,7.7-10.9,11.6-16.4c0.7,1.2,1.8,2.3,2.2,3.6c2.7,10.3,11.9,13,19.8,17.3
		c2.6,5.2,7.8,7.1,12.4,9.8c7.6,5.6,15.3,11.2,22.8,17c2.1,1.6,3.8,0.7,5.6-0.1C-553.9,259.9-547.6,257.4-541.2,254.8z"/>
	<path class="st13" d="M-480.4,338.2c11.2-15.6,22.4-31.2,33.7-46.8c1.6-2.2,2-4.1,0.7-6.7c-1.4-2.9-2.4-6-3.8-9.5
		c8.4-1.3,16.4-2.6,24.5-2.5c0.8,4.2,0.9,8.6,2.5,12.5c3,7.1,0.4,12.4-3.8,17.8c-6.8,8.8-14,17.3-21.5,25.6c-1.2,1.4-3.5,2.3-3,4.8
		c0,0,0.1-0.1,0.1-0.1c-1.1-0.3-1.4,0.4-1.7,1.2c-9.1,8.8-18.9,17-25.4,28.2c-2.6,4.4-6.6,6.5-11.8,5.4c-5.2-1.1-8.1-4.7-8.5-9.8
		c-0.3-5.1,2.1-9.8,7.1-10.7C-485.3,346.5-483.1,342.4-480.4,338.2z"/>
	<path class="st13" d="M-342.9,605.8c4.5-5.4,10.3-9.2,15.8-13.2c9,13.5,17.9,26.9,26.9,40.4c-4.4,3.1-8.8,6.3-13.2,9.4
		c-0.1-2.3-1.9-3.5-3.2-5C-325.3,626.8-334.1,616.3-342.9,605.8z"/>
	<path class="st11" d="M-313.4,642.3c4.4-3.1,8.8-6.3,13.2-9.4c2.3-1.2,3.9-1.2,5.8,1.4c8.8,12.7,8.9,12.6-4,21.2
		c-8.7,5.8-17.5,11.6-26.2,17.3c-0.7,0-1.4-0.1-2-0.1c-5.2-11.3-2.9-19.6,7.3-26.6C-317.4,644.9-315.4,643.6-313.4,642.3z"/>
	<path class="st14" d="M-636.1,233.4c1.2-0.6,2.5-0.4,3.4,0.5c10.6,10,21.1,20,31.6,30c0,28.4-0.1,56.8-0.1,85.2
		c0,87.2,0,174.5,0,261.7c0,24.3-13.6,42-35.9,46.9c-3.9,0.8-8.1,0.9-12.1,0.9c-71.4,0-142.8,0.1-214.2,0
		c-29.3,0-47.7-18.6-47.7-47.9c0-187.6,0-375.3,0-562.9c0-22.7,14.7-41.1,36.7-44.9c11.2-1.9,22.6-0.5,34.1-0.8
		c-0.2,2-0.3,3.4-0.5,4.8c-1.6,13.3,7.2,24.4,20.8,24.4c42,0.3,84,0.3,126,0c13.2-0.1,22.1-10.9,20.5-24c-0.6-4.5,0.6-5.4,4.8-5.2
		c10.3,0.5,20.8-1.1,31,0.8c22.4,4.1,36.7,22.5,36.7,46.9c0.1,59.8,0,119.7,0,179.5c0,2.2,0,4.5,0.1,6.7c-7.9-4.3-17.1-7-19.8-17.3
		c-0.3-1.3-1.4-2.4-2.2-3.6c2.1-3.5,4.2-6.9,6.4-10.4c5.1-4.2,5.1-10.6,6.9-16.2c0.7-2.1-2.3-3.8-4.2-2.2
		c-4.4,3.7-9.9,6.4-12.1,12.2c-5,9.9-14.4,16.8-18.2,27.5c-3.2,4.2-5,9.1-6.5,14.2c-0.4,1.5-0.9,3.3,0.8,4.4
		c1.5,0.9,3.1,0.4,4.4-0.8C-642.2,240.3-638.3,237.6-636.1,233.4z M-756.1,93.3c-37.5,0-75.1,0-112.6,0c-8.2,0-9.6,1.4-9.6,9.5
		c0,29,0,58,0,87c0,7.8,1.8,9.6,9.7,9.6c74.9,0,149.7,0,224.6,0c8.1,0,9.5-1.3,9.5-9.6c0-29,0-58,0-87c0-8.4-1.1-9.4-9.5-9.4
		C-681.5,93.2-718.8,93.3-756.1,93.3z M-756.1,374.6c-37.5,0-75,0-112.5,0c-7.8,0-9.8,1.9-9.8,9.6c0,28.4,0,56.8,0,85.1
		c0,8.9,2.2,11.2,11,11.2c74.2,0,148.4,0,222.6,0c8.1,0,9.8-1.8,9.8-10.1c0-29,0-58,0-87c0-8-0.8-8.8-8.7-8.8
		C-681.1,374.6-718.6,374.6-756.1,374.6z M-756.7,311.3c29.8,0,59.6,0,89.4,0c2,0,4.1,0.2,6-0.4c3.2-1,5.7-2.8,5.7-6.9
		c0-4.1-2.4-5.9-5.7-6.9c-1.9-0.6-4-0.4-6-0.4c-59.6,0-119.2,0-178.8,0c-1.8,0-3.7-0.2-5.4,0.2c-5.6,1.2-7.3,6.7-3.9,11.2
		c2.3,3,5.3,3.2,8.7,3.2C-816.7,311.3-786.7,311.3-756.7,311.3z M-756,511c-30,0-60,0-90,0c-2.2,0-4.5,0-6.6,0.6
		c-4.8,1.6-6.1,7-2.8,10.7c2.3,2.6,5.4,3.3,8.8,3.3c60.4,0,120.8,0,181.3-0.1c6.5,0,9.8-2.6,9.7-7.4c-0.1-4.9-3.1-7.2-9.7-7.2
		C-695.6,511-725.8,511-756,511z M-756,577.9c-30,0-60,0-90,0c-1.8,0-3.7-0.1-5.5,0.2c-3,0.6-4.9,2.4-5.6,5.6
		c-0.7,3.1,0.9,5,2.9,6.8c2.1,1.8,4.7,2.1,7.4,2.1c60.4,0,120.8,0,181.2,0c6.6,0,10.3-2.9,9.8-8c-0.6-5.8-4.7-6.6-9.7-6.6
		C-695.6,578-725.8,577.9-756,577.9z M-757.3,558.4c30.4,0,60.8,0,91.2,0c1.6,0,3.3,0.2,4.8-0.1c3.2-0.8,5.5-2.8,5.6-6.3
		c0.1-3.2-0.9-5.9-4.4-7.1c-2.8-1-5.5-1.1-8.4-1.1c-58.4,0-116.7,0-175.1,0c-1.8,0-3.7-0.2-5.4,0.2c-4.2,1.1-8.6,2.5-8,8
		c0.5,5.3,4.2,6.5,9.1,6.4C-817.7,558.3-787.5,558.4-757.3,558.4z M-756.1,244c29.4,0,58.8,0,88.2,0c1.8,0,3.7,0.1,5.5-0.2
		c3.8-0.6,6.6-2.8,6.5-6.8c0-4.3-2.9-6.5-7-7c-1.4-0.2-2.8-0.1-4.3-0.1c-59.6,0-119.2,0-178.8,0c-1.8,0-3.7-0.1-5.4,0.4
		c-3.2,0.8-5.2,2.9-5.2,6.5c0,3.6,1.7,5.8,5.1,6.5c2.1,0.5,4.4,0.5,6.6,0.5C-815.3,244-785.7,244-756.1,244z M-755.9,263.8
		c-30.8,0-61.7,0.1-92.5-0.1c-5.1,0-8.9,1.7-8.9,6.7c-0.1,4.9,3.6,6.9,8.8,6.9c61.2-0.1,122.5-0.1,183.7,0c4.8,0,8.6-1.2,9.1-6.6
		c0.5-4.8-2.4-6.9-8.9-6.9C-695,263.8-725.5,263.8-755.9,263.8z"/>
	<path class="st15" d="M-458,654.3c1.1,0.2,2.2,0.4,3.2,0.6c0,4-0.3,8.1,0,12.1c0.3,4.3-0.8,6.1-5.6,6c-11.9-0.3-23.7-0.2-35.6-0.1
		c-2.9,0-5.3-0.2-5.2-3.9c2.1-8.6,8.4-14,17-14.4c3.6-0.2,7.3-0.2,10.9-0.3C-468.2,654.3-463.1,654.3-458,654.3z"/>
	<path class="st16" d="M-764.6,7.3c5,0,10.1,0,15.1,0c1.6,0,3.5,0.3,3.6,2.4c0.2,2.5-1.8,3-3.6,3c-10.1,0.1-20.2,0.1-30.3,0
		c-1.9,0-3.9-0.5-3.6-3c0.2-2,2-2.4,3.6-2.4C-774.7,7.3-769.6,7.3-764.6,7.3z"/>
	<path class="st13" d="M-458,654.3c-5.1,0-10.1,0-15.2,0c-0.8-6.6-1.6-13.1-2.3-19.7c-0.2-1.8-0.2-3.7-2.1-4.7
		c6.6-1,13.1-1.9,19.6-2.9C-458,636.1-458,645.2-458,654.3z"/>
	<path class="st1" d="M-452.7,334.5c0.3-0.8,0.6-1.6,1.7-1.2C-451,334.5-452,334.3-452.7,334.5z"/>
	<path class="st17" d="M-491,167.2c0,13.1-1,14.1-12.8,14c-15.5-0.2-29.4-12.8-31.1-28c-0.2-2.1,0-3.3,2.4-3.9
		c8.2-2.2,16.3-4.6,24.5-7c4.1-1.2,6.6,1.6,8.8,4.1C-493.5,152.6-490.3,159.9-491,167.2z"/>
	<path class="st18" d="M-616.8,204.4c-2.1,3.5-4.2,7-6.4,10.4c-3.9,5.5-7.7,10.9-11.6,16.4c-3.3-1.6-5.8-4.6-9.5-5.5
		c3.8-10.6,13.2-17.6,18.2-27.5c7.2,5.4-3.3,8.2-1.7,13.1c2.7-0.7,3.5-3.2,4.4-5C-621.7,203-619.6,202.9-616.8,204.4z"/>
	<path class="st8" d="M-644.3,225.7c3.7,1,6.2,3.9,9.5,5.5c-0.5,0.7-0.9,1.4-1.4,2.1c-2.2,4.3-6.1,6.9-9.4,10.1
		c-1.3,1.2-2.9,1.8-4.4,0.8c-1.7-1-1.2-2.8-0.8-4.4C-649.3,234.8-647.5,229.9-644.3,225.7z"/>
	<path class="st3" d="M-756.1,93.3c37.3,0,74.6,0,112,0c8.5,0,9.5,1,9.5,9.4c0,29,0,58,0,87c0,8.3-1.3,9.6-9.5,9.6
		c-74.9,0-149.7,0-224.6,0c-7.9,0-9.7-1.7-9.7-9.6c0-29,0-58,0-87c0-8,1.5-9.5,9.6-9.5C-831.2,93.2-793.6,93.3-756.1,93.3z"/>
	<path class="st9" d="M-756.1,374.6c37.5,0,75,0,112.5,0c7.8,0,8.6,0.8,8.7,8.8c0,29,0,58,0,87c0,8.3-1.8,10.1-9.8,10.1
		c-74.2,0-148.4,0-222.6,0c-8.8,0-11-2.2-11-11.2c0-28.4,0-56.8,0-85.1c0-7.7,2-9.6,9.8-9.6C-831.1,374.6-793.6,374.6-756.1,374.6z"
		/>
	<path class="st9" d="M-756.7,311.3c-30,0-60,0-90,0c-3.4,0-6.4-0.2-8.7-3.2c-3.5-4.5-1.7-10,3.9-11.2c1.7-0.4,3.6-0.2,5.4-0.2
		c59.6,0,119.2,0,178.8,0c2,0,4.1-0.1,6,0.4c3.3,1,5.7,2.8,5.7,6.9c0,4.1-2.5,5.9-5.7,6.9c-1.9,0.6-4,0.4-6,0.4
		C-697.1,311.3-726.9,311.3-756.7,311.3z"/>
	<path class="st9" d="M-756,511c30.2,0,60.4,0,90.6,0c6.7,0,9.7,2.2,9.7,7.2c0.1,4.8-3.2,7.4-9.7,7.4c-60.4,0-120.8,0-181.3,0.1
		c-3.4,0-6.5-0.6-8.8-3.3c-3.3-3.8-2-9.2,2.8-10.7c2-0.7,4.4-0.6,6.6-0.6C-816,510.9-786,511-756,511z"/>
	<path class="st9" d="M-756,577.9c30.2,0,60.4,0,90.6,0c5,0,9.1,0.9,9.7,6.6c0.5,5.1-3.2,8-9.8,8c-60.4,0-120.8,0-181.2,0
		c-2.7,0-5.3-0.3-7.4-2.1c-2-1.7-3.7-3.6-2.9-6.8c0.8-3.2,2.6-5,5.6-5.6c1.8-0.3,3.6-0.2,5.5-0.2C-815.9,577.9-786,577.9-756,577.9z
		"/>
	<path class="st9" d="M-757.3,558.4c-30.2,0-60.4-0.1-90.6,0.1c-5,0-8.6-1.1-9.1-6.4c-0.6-5.6,3.8-7,8-8c1.7-0.4,3.6-0.2,5.4-0.2
		c58.4,0,116.7,0,175.1,0c2.8,0,5.6,0.1,8.4,1.1c3.5,1.2,4.5,3.9,4.4,7.1c-0.1,3.5-2.4,5.5-5.6,6.3c-1.5,0.4-3.2,0.1-4.8,0.1
		C-696.6,558.4-726.9,558.4-757.3,558.4z"/>
	<path class="st19" d="M-756.1,244c-29.6,0-59.2,0-88.8,0c-2.2,0-4.5-0.1-6.6-0.5c-3.4-0.7-5.1-3-5.1-6.5c0-3.6,2-5.7,5.2-6.5
		c1.7-0.5,3.6-0.4,5.4-0.4c59.6,0,119.2,0,178.8,0c1.4,0,2.9-0.1,4.3,0.1c4.1,0.5,7,2.7,7,7c0,4-2.7,6.2-6.5,6.8
		c-1.8,0.3-3.6,0.2-5.5,0.2C-697.3,244-726.7,244-756.1,244z"/>
	<path class="st9" d="M-755.9,263.8c30.4,0,60.8,0,91.3,0c6.6,0,9.4,2,8.9,6.9c-0.5,5.3-4.2,6.6-9.1,6.6
		c-61.2-0.1-122.5-0.1-183.7,0c-5.2,0-8.8-1.9-8.8-6.9c0.1-5,3.8-6.7,8.9-6.7C-817.5,263.9-786.7,263.8-755.9,263.8z"/>
	<path class="st8" d="M-616.8,204.4c-2.8-1.6-4.9-1.5-6.6,1.9c-0.9,1.8-1.8,4.4-4.4,5c-1.5-4.9,8.9-7.7,1.7-13.1
		c2.2-5.9,7.7-8.6,12.1-12.2c1.9-1.6,4.8,0.1,4.2,2.2C-611.6,193.8-611.7,200.3-616.8,204.4z"/>
</g>
</svg>
